<svg width="28" height="22" viewBox="0 0 28 22" fill="none" xmlns="http://www.w3.org/2000/svg">
<path d="M27.1797 11.9852L17.9922 21.1727C17.1719 21.9931 15.75 21.4462 15.75 20.2431V14.9931H8.3125C7.54688 14.9931 7 14.4462 7 13.6806V8.43056C7 7.71962 7.54688 7.11806 8.3125 7.11806H15.75V1.86806C15.75 0.71962 17.1172 0.118057 17.9922 0.93837L27.1797 10.1259C27.6719 10.6727 27.6719 11.4931 27.1797 11.9852ZM10.5 20.8993C10.5 21.2821 10.1719 21.5556 9.84375 21.5556H5.25C2.35156 21.5556 0 19.204 0 16.3056V5.80556C0 2.90712 2.35156 0.555557 5.25 0.555557H9.84375C10.1719 0.555557 10.5 0.883682 10.5 1.21181V3.39931C10.5 3.78212 10.1719 4.05556 9.84375 4.05556H5.25C4.26562 4.05556 3.5 4.87587 3.5 5.80556V16.3056C3.5 17.2899 4.26562 18.0556 5.25 18.0556H9.84375C10.1719 18.0556 10.5 18.3837 10.5 18.7118V20.8993Z" fill="#BDBDBD"/>
</svg>
